<svg xmlns="http://www.w3.org/2000/svg" viewBox="0 0 1200 600" preserveAspectRatio="xMidYMid meet">
  <defs>
    <linearGradient id="g1" x1="0" x2="1">
      <stop offset="0" stop-color="#0078D4"/>
      <stop offset="1" stop-color="#4285F4"/>
    </linearGradient>
  </defs>
  <rect width="100%" height="100%" fill="none"/>
  <g transform="translate(120,80)">
    <ellipse cx="420" cy="150" rx="280" ry="120" fill="#eaf6ff" />
    <g transform="translate(120,40)">
      <path d="M120 160c-40 0-72-32-72-72s32-72 72-72c12 0 24 3 34 8 18-22 46-36 77-36 54 0 98 44 98 98s-44 98-98 98H120z" fill="url(#g1)" opacity="0.95"/>
      <g transform="translate(40,20)">
        <circle cx="360" cy="40" r="8" fill="#fff" opacity="0.9"/>
        <circle cx="400" cy="36" r="6" fill="#fff" opacity="0.7"/>
      </g>
    </g>
    <g transform="translate(50,260)">
      <rect x="0" y="0" width="220" height="120" rx="12" fill="#fff" stroke="#dbeafe" stroke-width="2" />
      <rect x="260" y="0" width="220" height="120" rx="12" fill="#fff" stroke="#dbeafe" stroke-width="2" />
      <rect x="520" y="0" width="220" height="120" rx="12" fill="#fff" stroke="#dbeafe" stroke-width="2" />
      <text x="20" y="30" font-family="Inter, Arial, sans-serif" font-size="16" fill="#0f1724">Client App</text>
      <text x="280" y="30" font-family="Inter, Arial, sans-serif" font-size="16" fill="#0f1724">API / Backend</text>
      <text x="540" y="30" font-family="Inter, Arial, sans-serif" font-size="16" fill="#0f1724">Cloud Services</text>
      <line x1="220" y1="60" x2="260" y2="60" stroke="#9fbefb" stroke-width="3" stroke-linecap="round"/>
      <line x1="480" y1="60" x2="520" y2="60" stroke="#9fbefb" stroke-width="3" stroke-linecap="round"/>
    </g>
  </g>
  <text x="40" y="40" font-family="Poppins, Arial, sans-serif" font-size="22" fill="#0f1724">Cloud-native architecture — Pringa Consultancy Services</text>
</svg>
